<?xml version="1.0" encoding="UTF-8" standalone="no"?>
<svg
   xmlns:dc="http://purl.org/dc/elements/1.1/"
   xmlns:cc="http://creativecommons.org/ns#"
   xmlns:rdf="http://www.w3.org/1999/02/22-rdf-syntax-ns#"
   xmlns:svg="http://www.w3.org/2000/svg"
   xmlns="http://www.w3.org/2000/svg"
   xmlns:sodipodi="http://sodipodi.sourceforge.net/DTD/sodipodi-0.dtd"
   xmlns:inkscape="http://www.inkscape.org/namespaces/inkscape"
   width="298.29688"
   height="85.182297"
   viewBox="0 0 78.924378 22.537816"
   version="1.1"
   id="svg16"
   inkscape:version="1.0.1 (c497b03c, 2020-09-10)"
   sodipodi:docname="ASTM.svg">
  <defs
     id="defs10">
    <clipPath
       id="clip413">
      <path
         d="M 56.160156,686 H 100 v 25 H 56.160156 Z m 0,0"
         id="path3358" />
    </clipPath>
    <clipPath
       id="clip414">
      <path
         d="m 103,679.01562 h 16 V 698 h -16 z m 0,0"
         id="path3361" />
    </clipPath>
    <clipPath
       id="clip415">
      <path
         d="m 122,679.01562 h 16 V 698 h -16 z m 0,0"
         id="path3364" />
    </clipPath>
    <clipPath
       id="clip416">
      <path
         d="m 141,679.01562 h 14 V 698 h -14 z m 0,0"
         id="path3367" />
    </clipPath>
    <clipPath
       id="clip417">
      <path
         d="m 159,679.01562 h 14 V 698 h -14 z m 0,0"
         id="path3370" />
    </clipPath>
    <clipPath
       id="clip418">
      <path
         d="m 175,679.01562 h 15.125 V 698 H 175 Z m 0,0"
         id="path3373" />
    </clipPath>
    <clipPath
       id="clip1">
      <path
         d="m 595,31 h 17.37109 V 50 H 595 Z m 0,0"
         id="path12837" />
    </clipPath>
    <clipPath
       id="clip2">
      <path
         d="m 72,79 h 83 v 24.37891 H 72 Z m 0,0"
         id="path12840" />
    </clipPath>
    <clipPath
       id="clip1-76">
      <path
         d="m 36,36 h 81 V 99.136719 H 36 Z m 0,0"
         id="path16783" />
    </clipPath>
    <clipPath
       id="clip2-9">
      <path
         d="m 251,71 h 7.97266 V 84 H 251 Z m 0,0"
         id="path16786" />
    </clipPath>
  </defs>
  <sodipodi:namedview
     id="base"
     pagecolor="#00ffff"
     bordercolor="#666666"
     borderopacity="1.0"
     inkscape:pageopacity="0"
     inkscape:pageshadow="2"
     inkscape:zoom="0.3852122"
     inkscape:cx="551.84928"
     inkscape:cy="137.3222"
     inkscape:document-units="px"
     inkscape:current-layer="layer1"
     inkscape:document-rotation="0"
     showgrid="false"
     units="px"
     fit-margin-top="0.5"
     lock-margins="true"
     fit-margin-left="0.5"
     fit-margin-right="0.5"
     fit-margin-bottom="0.5"
     inkscape:window-width="1440"
     inkscape:window-height="874"
     inkscape:window-x="0"
     inkscape:window-y="26"
     inkscape:window-maximized="0" />
  <metadata
     id="metadata13">
    <rdf:RDF>
      <cc:Work
         rdf:about="">
        <dc:format>image/svg+xml</dc:format>
        <dc:type
           rdf:resource="http://purl.org/dc/dcmitype/StillImage" />
        <dc:title></dc:title>
      </cc:Work>
    </rdf:RDF>
  </metadata>
  <g
     inkscape:label="Layer 1"
     inkscape:groupmode="layer"
     id="layer1"
     transform="translate(139.27834,-47.380799)">
    <g
       id="g22890"
       transform="translate(-454.10904,-91.620839)">
      <g
         clip-path="url(#clip1-76)"
         clip-rule="nonzero"
         id="g16793"
         transform="matrix(0.35277778,0,0,0.35277778,302.26299,126.43393)">
        <path
           style="fill:#003359;fill-opacity:1;fill-rule:nonzero;stroke:none"
           d="m 94.695312,71.601562 c 3.339844,-1.339843 6.425778,-2.753906 9.132818,-4.1875 -0.0391,-3.386718 -0.4961,-5.78125 -1.45313,-7.710937 -0.96875,2.335937 -2.386719,5.742187 -2.804688,6.730469 -0.148437,0.351562 -0.363281,0.578125 -0.644531,0.578125 -0.277343,0 -0.445312,-0.164063 -0.648437,-0.558594 -0.300782,-0.59375 -2.171875,-4.472656 -3.582032,-7.414063 z M 53.113281,64.871094 V 52.789062 c -2.433593,3.265626 -3.980469,7.804688 -4.332031,12.082032 z m 63.515629,-8.007813 c 0,7.671875 -18.511722,17.636719 -43.062504,23.398438 -7.644531,1.796875 -16.371094,3.210937 -23.324218,3.210937 C 40.125,83.472656 36,79.882812 36,75.839844 c 0,-2.46875 1.496094,-4.785156 4.625,-6.875 0.164062,-0.113282 0.34375,-0.195313 0.484375,-0.195313 0.183594,0 0.292969,0.117188 0.292969,0.269531 0,0.132813 -0.07422,0.246094 -0.257813,0.390626 -2.453125,1.933593 -3.699219,3.953124 -3.699219,6.042968 0,2.867188 3.132813,5.972656 12.628907,5.972656 0.921875,0 1.941406,-0.03516 3.039062,-0.09375 V 69.578125 h -4.316406 c 0.148437,2.089844 0.507813,3.898437 1.222656,6.460937 0.08203,0.289063 0.128907,0.527344 0.128907,0.667969 0,0.402344 -0.191407,0.628907 -0.78125,0.847657 -0.707032,0.257812 -1.328126,0.480468 -1.964844,0.691406 -0.257813,0.08594 -0.472656,0.125 -0.660156,0.125 -0.4375,0 -0.695313,-0.246094 -0.90625,-0.746094 -1.355469,-3.179688 -1.847657,-7.273438 -1.847657,-10.558594 0,-9.414062 5.03125,-18.679687 12.1875,-24.070312 0.347657,-0.265625 0.679688,-0.375 0.914063,-0.375 0.480468,0 0.753906,0.359375 0.753906,0.761718 v 37.5625 c 1.121094,-0.125 2.289062,-0.269531 3.488281,-0.4375 v -6.84375 c 0,-0.867187 0.339844,-1.167968 1.269531,-1.167968 h 2.253907 c 0.929687,0 1.222656,0.300781 1.222656,1.167968 V 79.75 c 1.285156,-0.226562 2.585937,-0.476562 3.902344,-0.746094 v -6.449218 c 0,-1.207032 -0.316407,-1.671876 -1.238281,-2.21875 -0.933594,-0.550782 -2.757813,-1.644532 -4.050782,-2.421876 -2.296875,-1.386718 -3.359375,-2.636718 -3.359375,-5.550781 V 42.523438 c 0,-1.457032 0.304688,-2.398438 1.636719,-3.246094 2.585938,-1.644532 7.15625,-3.191406 9.390625,-3.191406 1.378906,0 1.96875,0.648437 1.96875,1.734374 v 22.457032 c 0,0.867187 -0.292969,1.164062 -1.222656,1.164062 h -2.300781 c -0.929688,0 -1.222657,-0.296875 -1.222657,-1.164062 V 42.554688 c 0,-0.6875 -0.152343,-0.941407 -0.699219,-0.941407 -0.421874,0 -1.238281,0.289063 -1.863281,0.675781 -0.679687,0.421876 -0.832031,0.875 -0.832031,1.703126 v 17.308593 c 0,1.238281 0.203125,1.601563 1.207031,2.214844 1.214844,0.746094 2.976563,1.789063 4.054688,2.421875 2.402343,1.414062 3.355469,2.804688 3.355469,5.550781 v 6.429688 c 1.621093,-0.390625 3.238281,-0.8125 4.839843,-1.257813 V 40.894531 c -0.570312,-0.07422 -1.660156,-0.195312 -2.761719,-0.316406 -0.890624,-0.09375 -1.027343,-0.460937 -1.027343,-1.09375 V 37.089844 C 75.855469,36.386719 76.214844,36 76.992188,36 c 2.898437,0 8.113281,1.046875 10.289062,1.914062 0.871094,0.347657 1.050781,0.679688 1.050781,1.304688 v 2.707031 c 0,0.578125 -0.296875,0.847657 -0.738281,0.847657 -0.191406,0 -0.398438,-0.05469 -0.835938,-0.199219 -0.980468,-0.320313 -1.832031,-0.578125 -2.386718,-0.730469 v 33.425781 c 1.863281,-0.585937 3.695312,-1.195312 5.476562,-1.832031 V 39.847656 c 0,-0.492187 0.265625,-0.84375 0.734375,-0.84375 0.488281,0 0.761719,0.390625 1.117188,1.210938 1.382812,3.191406 4.675781,10.804687 7.308593,16.875 0.949219,-2.632813 2.109378,-5.851563 2.351568,-6.550782 0.17968,-0.507812 0.43359,-0.761718 0.8164,-0.761718 0.30078,0 0.54297,0.152344 0.90625,0.601562 3.00391,4.125 4.83985,8.753906 5.34766,14.332032 4.21484,-2.78125 6.75781,-5.539063 6.75781,-7.941407 0,-2.371093 -2.27344,-4.40625 -7.74219,-4.679687 -0.25,-0.01172 -0.39453,-0.136719 -0.39453,-0.324219 0,-0.171875 0.14063,-0.308594 0.42188,-0.308594 6.1914,0 9.15625,2.683594 9.15625,5.40625 M 69.980469,83.066406 v 9.707032 c 0,0.6875 -0.28125,0.949218 -0.828125,0.949218 -0.582032,0 -1.613282,-0.222656 -2.207032,-0.574218 -0.691406,-0.410157 -0.867187,-0.820313 -0.867187,-1.71875 v -7.664063 c -1.601563,0.285156 -3.1875,0.515625 -4.746094,0.730469 v 8.550781 c 0,1.78125 0.53125,2.75 2.226563,3.710937 2.210937,1.25 6.847656,2.378907 9.160156,2.378907 1.40625,0 2.085938,-0.789063 2.085938,-1.980469 V 81.992188 c -1.613282,0.386718 -3.222657,0.746093 -4.824219,1.074218 m -16.867188,2.164063 v 3.152343 c 0,1.113282 0.238281,1.554688 0.890625,2.09375 0.671875,0.554688 1.476563,1.214844 2.339844,1.921876 0.292969,0.242187 0.59375,0.355468 0.847656,0.355468 0.378906,0 0.652344,-0.261718 0.652344,-0.804687 v -7.058594 c -1.589844,0.140625 -3.195312,0.253906 -4.730469,0.339844 m 26.53125,-4.453125 V 97.9375 c 0,0.574219 0.292969,0.921875 0.921875,0.921875 0.675782,0 2.046875,-0.300781 2.878906,-0.574219 0.695313,-0.234375 0.925782,-0.570312 0.925782,-1.242187 V 79.414062 c -1.527344,0.464844 -3.105469,0.917969 -4.726563,1.363282 m 15.050781,-4.851563 c -1.542968,0.59375 -3.15625,1.183594 -4.847656,1.761719 v 17.292969 c 0,0.613281 0.285156,0.914062 0.820313,0.914062 0.199219,0 0.394531,-0.03125 0.671875,-0.148437 0.566406,-0.238282 2.09375,-1.066406 2.679687,-1.484375 0.582031,-0.414063 0.675781,-0.742188 0.675781,-1.605469 z m 13.855468,-6.726562 c -0.2539,6.152343 -2.4375,12.742187 -7.1914,18.46875 -0.23047,0.273437 -0.40235,0.371093 -0.67969,0.371093 -0.27344,0 -0.47656,-0.09766 -0.722659,-0.292968 -0.4375,-0.34375 -1.496093,-1.183594 -1.820312,-1.453125 -0.300781,-0.25 -0.464844,-0.488281 -0.464844,-0.792969 0,-0.289062 0.144531,-0.5625 0.335937,-0.839844 3.171878,-4.578125 4.874998,-8.425781 5.519528,-12.59375 1.34375,-0.644531 3.59766,-1.917968 5.02344,-2.867187"
           id="path16791" />
      </g>
      <path
         style="fill:#003359;fill-opacity:1;fill-rule:nonzero;stroke:none;stroke-width:0.352778"
         d="m 350.15533,147.44901 -0.91088,-2.31924 -0.91778,2.31924 z m 0.74276,1.47175 c -0.11024,0 -0.21359,-0.0648 -0.25907,-0.17364 l -0.32246,-0.82131 h -2.14423 l -0.32246,0.82131 c -0.0455,0.10887 -0.14883,0.17364 -0.25907,0.17364 -0.17501,0 -0.29077,-0.13505 -0.29077,-0.28388 0,-0.0317 0.007,-0.0717 0.0193,-0.10335 l 1.48553,-3.70692 c 0.0716,-0.17501 0.23977,-0.29077 0.43959,-0.29077 0.18741,0 0.35553,0.11576 0.42581,0.29077 l 1.49931,3.70692 c 0.0124,0.0317 0.0193,0.0717 0.0193,0.10335 0,0.12954 -0.11714,0.28388 -0.29077,0.28388"
         id="path16795" />
      <path
         style="fill:#003359;fill-opacity:1;fill-rule:nonzero;stroke:none;stroke-width:0.352778"
         d="m 353.30001,148.95934 c -0.63389,0 -1.15617,-0.21222 -1.5117,-0.53605 -0.0579,-0.051 -0.0841,-0.11576 -0.0841,-0.19293 0,-0.12954 0.0965,-0.27147 0.25218,-0.27147 0.051,0 0.10886,0.007 0.15434,0.051 0.30317,0.26459 0.71106,0.47129 1.20853,0.47129 0.76757,0 1.01424,-0.41341 1.01424,-0.74138 0,-1.11208 -2.55212,-0.49747 -2.55212,-2.03536 0,-0.70418 0.63252,-1.19476 1.47863,-1.19476 0.54984,0 1.04042,0.16812 1.38217,0.45888 0.0593,0.051 0.0909,0.11576 0.0909,0.19293 0,0.12953 -0.10335,0.25907 -0.25218,0.25907 -0.0579,0 -0.10886,-0.0193 -0.15434,-0.0579 -0.31695,-0.25907 -0.71107,-0.37482 -1.10518,-0.37482 -0.51677,0 -0.8847,0.27147 -0.8847,0.68488 0,0.96876 2.55212,0.41203 2.55212,2.02158 0,0.62563 -0.42719,1.26504 -1.58888,1.26504"
         id="path16797" />
      <path
         style="fill:#003359;fill-opacity:1;fill-rule:nonzero;stroke:none;stroke-width:0.352778"
         d="m 358.39462,145.0526 h -1.17547 v 3.60357 c 0,0.14883 -0.11713,0.26459 -0.27147,0.26459 -0.14883,0 -0.26458,-0.11576 -0.26458,-0.26459 v -3.60357 h -1.16996 c -0.12816,0 -0.23151,-0.0978 -0.23151,-0.24666 0,-0.12816 0.10335,-0.23152 0.23151,-0.23152 h 2.88148 c 0.12816,0 0.23289,0.0965 0.23289,0.2453 0,0.12953 -0.10473,0.23288 -0.23289,0.23288"
         id="path16799" />
      <path
         style="fill:#003359;fill-opacity:1;fill-rule:nonzero;stroke:none;stroke-width:0.352778"
         d="m 363.41895,148.65617 c 0,0.14883 -0.11713,0.26459 -0.27148,0.26459 -0.14883,0 -0.26596,-0.11576 -0.26596,-0.26459 v -3.31969 l -1.44556,3.50022 c -0.0207,0.0524 -0.0648,0.0841 -0.13642,0.0841 -0.051,0 -0.10336,-0.0317 -0.12265,-0.0841 l -1.44005,-3.50022 v 3.31969 c 0,0.14883 -0.11713,0.26459 -0.27147,0.26459 -0.14883,0 -0.26459,-0.11576 -0.26459,-0.26459 v -3.68211 c 0,-0.23151 0.19293,-0.43271 0.44511,-0.43271 0.17501,0 0.35553,0.0978 0.42719,0.27148 l 1.23335,3.00412 1.24023,-3.00412 c 0.0703,-0.17364 0.24529,-0.27148 0.42581,-0.27148 0.23978,0 0.44649,0.2012 0.44649,0.43271 z m 0,0"
         id="path16801" />
      <path
         style="fill:#003359;fill-opacity:1;fill-rule:nonzero;stroke:none;stroke-width:0.352778"
         d="m 347.83609,155.65385 c 0,0.14745 -0.11575,0.26459 -0.27147,0.26459 -0.14883,0 -0.26459,-0.11714 -0.26459,-0.26459 v -3.86264 c 0,-0.14883 0.11576,-0.25907 0.27837,-0.25907 0.14883,0 0.25769,0.11024 0.25769,0.25907 z m 0,0"
         id="path16803" />
      <path
         style="fill:#003359;fill-opacity:1;fill-rule:nonzero;stroke:none;stroke-width:0.352778"
         d="m 352.24719,155.61389 c 0,0.15572 -0.12953,0.30455 -0.32384,0.30455 -0.10335,0 -0.2067,-0.0524 -0.26458,-0.13643 l -2.44188,-3.33899 v 3.21083 c 0,0.14745 -0.11576,0.26459 -0.2701,0.26459 -0.14883,0 -0.26596,-0.11714 -0.26596,-0.26459 v -3.79787 c 0,-0.17501 0.14194,-0.32384 0.34313,-0.32384 0.10886,0 0.21222,0.0455 0.28388,0.14194 l 2.4033,3.26181 v -3.14468 c 0,-0.14883 0.11575,-0.25907 0.27698,-0.25907 0.14883,0 0.25907,0.11024 0.25907,0.25907 z m 0,0"
         id="path16805" />
      <path
         style="fill:#003359;fill-opacity:1;fill-rule:nonzero;stroke:none;stroke-width:0.352778"
         d="m 355.96514,152.0489 h -1.17409 v 3.60495 c 0,0.14745 -0.11713,0.26459 -0.27147,0.26459 -0.14883,0 -0.26596,-0.11714 -0.26596,-0.26459 v -3.60495 h -1.16858 c -0.12954,0 -0.23289,-0.0965 -0.23289,-0.24529 0,-0.12953 0.10335,-0.23289 0.23289,-0.23289 h 2.8801 c 0.12953,0 0.23289,0.0978 0.23289,0.2453 0,0.12953 -0.10336,0.23288 -0.23289,0.23288"
         id="path16807" />
      <path
         style="fill:#003359;fill-opacity:1;fill-rule:nonzero;stroke:none;stroke-width:0.352778"
         d="m 359.40059,155.87985 h -2.24069 c -0.2136,0 -0.38861,-0.17501 -0.38861,-0.38861 v -3.53329 c 0,-0.21221 0.17501,-0.38723 0.38861,-0.38723 h 2.24069 c 0.12953,0 0.23289,0.0978 0.23289,0.2453 0,0.12953 -0.10336,0.23288 -0.23289,0.23288 h -2.09186 v 1.38907 h 2.04638 c 0.12954,0 0.23289,0.0965 0.23289,0.24529 0,0.12953 -0.10335,0.23289 -0.23289,0.23289 h -2.04638 v 1.48552 h 2.09186 c 0.12953,0 0.23289,0.10335 0.23289,0.23151 0,0.14883 -0.10336,0.24667 -0.23289,0.24667"
         id="path16809" />
      <path
         style="fill:#003359;fill-opacity:1;fill-rule:nonzero;stroke:none;stroke-width:0.352778"
         d="m 360.9495,152.0489 v 1.64676 h 1.12999 c 0.51677,0 0.8599,-0.33486 0.8599,-0.82682 0,-0.49058 -0.34313,-0.81994 -0.8599,-0.81994 z m 1.42765,2.07395 0.92329,1.40147 c 0.0262,0.0455 0.0386,0.091 0.0386,0.13504 0,0.12954 -0.10886,0.25908 -0.26458,0.25908 -0.0841,0 -0.16123,-0.0386 -0.2136,-0.11714 l -1.05144,-1.63435 h -0.8599 v 1.4869 c 0,0.14745 -0.11575,0.26459 -0.27147,0.26459 -0.14745,0 -0.26458,-0.11714 -0.26458,-0.26459 v -3.69452 c 0,-0.21359 0.17501,-0.38861 0.38722,-0.38861 h 1.34359 c 0.78824,0 1.35048,0.50437 1.35048,1.29812 0,0.77583 -0.52365,1.20165 -1.11759,1.25401"
         id="path16811" />
      <path
         style="fill:#003359;fill-opacity:1;fill-rule:nonzero;stroke:none;stroke-width:0.352778"
         d="m 367.83969,155.61389 c 0,0.15572 -0.12815,0.30455 -0.32246,0.30455 -0.10335,0 -0.2067,-0.0524 -0.26458,-0.13643 l -2.44188,-3.33899 v 3.21083 c 0,0.14745 -0.11576,0.26459 -0.27148,0.26459 -0.14745,0 -0.26458,-0.11714 -0.26458,-0.26459 v -3.79787 c 0,-0.17501 0.14194,-0.32384 0.34313,-0.32384 0.10887,0 0.21222,0.0455 0.28388,0.14194 l 2.40192,3.26181 v -3.14468 c 0,-0.14883 0.11713,-0.25907 0.27836,-0.25907 0.14883,0 0.25769,0.11024 0.25769,0.25907 z m 0,0"
         id="path16813" />
      <path
         style="fill:#003359;fill-opacity:1;fill-rule:nonzero;stroke:none;stroke-width:0.352778"
         d="m 371.3468,154.44531 -0.91088,-2.31924 -0.91778,2.31924 z m 0.74276,1.47313 c -0.11024,0 -0.21359,-0.0648 -0.25907,-0.17502 l -0.32246,-0.81993 h -2.14423 l -0.32384,0.81993 c -0.0455,0.11025 -0.14882,0.17502 -0.25769,0.17502 -0.17501,0 -0.29077,-0.13643 -0.29077,-0.28388 0,-0.0331 0.007,-0.0717 0.0193,-0.10335 l 1.48552,-3.7083 c 0.0717,-0.17364 0.23978,-0.29077 0.4396,-0.29077 0.18741,0 0.35415,0.11713 0.42581,0.29077 l 1.49931,3.7083 c 0.0124,0.0317 0.0193,0.0703 0.0193,0.10335 0,0.12816 -0.11713,0.28388 -0.29076,0.28388"
         id="path16815" />
      <path
         style="fill:#003359;fill-opacity:1;fill-rule:nonzero;stroke:none;stroke-width:0.352778"
         d="m 375.16259,152.0489 h -1.17547 v 3.60495 c 0,0.14745 -0.11713,0.26459 -0.27147,0.26459 -0.14883,0 -0.26458,-0.11714 -0.26458,-0.26459 v -3.60495 h -1.16996 c -0.12816,0 -0.23151,-0.0965 -0.23151,-0.24529 0,-0.12953 0.10335,-0.23289 0.23151,-0.23289 h 2.88148 c 0.12954,0 0.23289,0.0978 0.23289,0.2453 0,0.12953 -0.10335,0.23288 -0.23289,0.23288"
         id="path16817" />
      <path
         style="fill:#003359;fill-opacity:1;fill-rule:nonzero;stroke:none;stroke-width:0.352778"
         d="m 376.56957,155.65385 c 0,0.14745 -0.11714,0.26459 -0.27148,0.26459 -0.14882,0 -0.26458,-0.11714 -0.26458,-0.26459 v -3.86264 c 0,-0.14883 0.11576,-0.25907 0.27699,-0.25907 0.14882,0 0.25907,0.11024 0.25907,0.25907 z m 0,0"
         id="path16819" />
      <path
         style="fill:#003359;fill-opacity:1;fill-rule:nonzero;stroke:none;stroke-width:0.352778"
         d="m 379.4097,151.97862 c -0.96876,0 -1.58198,0.74277 -1.58198,1.75011 0,1.00046 0.61322,1.75011 1.58198,1.75011 0.95636,0 1.58337,-0.74965 1.58337,-1.75011 0,-1.00734 -0.62701,-1.75011 -1.58337,-1.75011 m 0,3.9784 c -1.27193,0 -2.13733,-0.95636 -2.13733,-2.22829 0,-1.27193 0.8654,-2.22828 2.13733,-2.22828 1.27331,0 2.13872,0.95635 2.13872,2.22828 0,1.27193 -0.86541,2.22829 -2.13872,2.22829"
         id="path16821" />
      <path
         style="fill:#003359;fill-opacity:1;fill-rule:nonzero;stroke:none;stroke-width:0.352778"
         d="m 385.85479,155.61389 c 0,0.15572 -0.12954,0.30455 -0.32246,0.30455 -0.10336,0 -0.20671,-0.0524 -0.26459,-0.13643 l -2.44188,-3.33899 v 3.21083 c 0,0.14745 -0.11576,0.26459 -0.27147,0.26459 -0.14883,0 -0.26459,-0.11714 -0.26459,-0.26459 v -3.79787 c 0,-0.17501 0.14194,-0.32384 0.34176,-0.32384 0.11024,0 0.21359,0.0455 0.28525,0.14194 l 2.40192,3.26181 v -3.14468 c 0,-0.14883 0.11576,-0.25907 0.27837,-0.25907 0.14882,0 0.25769,0.11024 0.25769,0.25907 z m 0,0"
         id="path16823" />
      <path
         style="fill:#003359;fill-opacity:1;fill-rule:nonzero;stroke:none;stroke-width:0.352778"
         d="m 389.36051,154.44531 -0.91088,-2.31924 -0.91639,2.31924 z m 0.74277,1.47313 c -0.10887,0 -0.21222,-0.0648 -0.2577,-0.17502 l -0.32246,-0.81993 h -2.1456 l -0.32246,0.81993 c -0.0455,0.11025 -0.14883,0.17502 -0.25907,0.17502 -0.17363,0 -0.28939,-0.13643 -0.28939,-0.28388 0,-0.0331 0.005,-0.0717 0.0193,-0.10335 l 1.48552,-3.7083 c 0.0703,-0.17364 0.2384,-0.29077 0.43822,-0.29077 0.18879,0 0.35553,0.11713 0.42719,0.29077 l 1.49792,3.7083 c 0.0138,0.0317 0.0193,0.0703 0.0193,0.10335 0,0.12816 -0.11575,0.28388 -0.29077,0.28388"
         id="path16825" />
      <g
         clip-path="url(#clip2-9)"
         clip-rule="nonzero"
         id="g16829"
         transform="matrix(0.35277778,0,0,0.35277778,302.26299,126.43393)">
        <path
           style="fill:#003359;fill-opacity:1;fill-rule:nonzero;stroke:none"
           d="m 258.3125,83.46875 h -5.54688 c -0.60546,0 -1.09765,-0.496094 -1.09765,-1.101562 V 71.878906 c 0,-0.421875 0.32812,-0.734375 0.78515,-0.734375 0.42188,0 0.73438,0.3125 0.73438,0.734375 v 10.234375 h 5.125 c 0.36719,0 0.66016,0.292969 0.66016,0.65625 0,0.421875 -0.29297,0.699219 -0.66016,0.699219"
           id="path16827" />
      </g>
    </g>
  </g>
</svg>
