<?xml version="1.0" encoding="UTF-8" standalone="no"?>
<svg version="1.1"
  width="640"
  height="640"
  viewBox="0 0 640 640"
  xmlns="http://www.w3.org/2000/svg" xmlns:xlink="http://www.w3.org/1999/xlink">
  <desc>UKCA logo with black fill</desc>
  <g fill-rule="evenodd" id="UKCA">
    <path
       id="U"
	   style="fill:#000000;fill-opacity:1;stroke:#000000;stroke-width:0px;stroke-linecap:butt;stroke-linejoin:miter;stroke-opacity:1"
       d="M 80 80 V 230 A 70 70 0 0 0 150 300 H 230 A 70 70 0 0 0 300 230 V 80 H 250 V 230 A 20 20 0 0 1 230 250 H 150 A 20 20 0 0 1 130 230 V 80 Z"
       />
    <path
       id="K"
	   style="fill:#000000;fill-opacity:1;stroke:#000000;stroke-width:0px;stroke-linecap:butt;stroke-linejoin:miter;stroke-opacity:1"
       d="M 340 80 V 300 H 390 V 220 L 490 300 H 560 L 420 190 560 80 H 490 L 390 160 V 80 Z"
       />
    <path
       id="C"
	   style="fill:#000000;fill-opacity:1;stroke:#000000;stroke-width:0px;stroke-linecap:butt;stroke-linejoin:miter;stroke-opacity:1"
       d="M 300 340 V 390 H 150 A 20 20 0 0 0 130 410 V 490 A 20 20 0 0 0 150 510 H 300 V 560 H 150 A 70 70 0 0 1 80 490 V 410 A 70 70 0 0 1 150 340 Z"
       />
    <path
       id="A"
       style="fill:#000000;fill-opacity:1;stroke:#000000;stroke-width:0px;stroke-linecap:butt;stroke-linejoin:miter;stroke-opacity:1"
       d="M 340 560 V 410 A 70 70 0 0 1 410 340 H 490 A 70 70 0 0 1 560 410 V 560 H 510 V 510 H 390 V 560 Z M 390 460 H 510 V 410 A 20 20 0 0 0 490 390 H 410 A 20 20 0 0 0 390 410 Z"
	   />
  </g>
</svg>
