<svg xmlns="http://www.w3.org/2000/svg" viewBox="0 0 20 14">
  <!-- Stripes -->
  <rect width="20" height="14" fill="#B22234"/>
  <rect y="1.077" width="20" height="1.077" fill="#fff"/>
  <rect y="2.154" width="20" height="1.077" fill="#B22234"/>
  <rect y="3.231" width="20" height="1.077" fill="#fff"/>
  <rect y="4.308" width="20" height="1.077" fill="#B22234"/>
  <rect y="5.385" width="20" height="1.077" fill="#fff"/>
  <rect y="6.462" width="20" height="1.077" fill="#B22234"/>
  <rect y="7.538" width="20" height="1.077" fill="#fff"/>
  <rect y="8.615" width="20" height="1.077" fill="#B22234"/>
  <rect y="9.692" width="20" height="1.077" fill="#fff"/>
  <rect y="10.769" width="20" height="1.077" fill="#B22234"/>
  <rect y="11.846" width="20" height="1.077" fill="#fff"/>
  <!-- Canton -->
  <rect width="8" height="7.538" fill="#3C3B6E"/>
  <!-- Stars (simplified dots) -->
  <g fill="#fff" font-size="1.2">
    <circle cx="1" cy="1.1" r=".45"/><circle cx="2.6" cy="1.1" r=".45"/><circle cx="4.2" cy="1.1" r=".45"/><circle cx="5.8" cy="1.1" r=".45"/><circle cx="7.4" cy="1.1" r=".45"/>
    <circle cx="1.8" cy="2.2" r=".45"/><circle cx="3.4" cy="2.2" r=".45"/><circle cx="5" cy="2.2" r=".45"/><circle cx="6.6" cy="2.2" r=".45"/>
    <circle cx="1" cy="3.3" r=".45"/><circle cx="2.6" cy="3.3" r=".45"/><circle cx="4.2" cy="3.3" r=".45"/><circle cx="5.8" cy="3.3" r=".45"/><circle cx="7.4" cy="3.3" r=".45"/>
    <circle cx="1.8" cy="4.4" r=".45"/><circle cx="3.4" cy="4.4" r=".45"/><circle cx="5" cy="4.4" r=".45"/><circle cx="6.6" cy="4.4" r=".45"/>
    <circle cx="1" cy="5.5" r=".45"/><circle cx="2.6" cy="5.5" r=".45"/><circle cx="4.2" cy="5.5" r=".45"/><circle cx="5.8" cy="5.5" r=".45"/><circle cx="7.4" cy="5.5" r=".45"/>
    <circle cx="1.8" cy="6.6" r=".45"/><circle cx="3.4" cy="6.6" r=".45"/><circle cx="5" cy="6.6" r=".45"/><circle cx="6.6" cy="6.6" r=".45"/>
  </g>
</svg>
